<svg xmlns="http://www.w3.org/2000/svg" fill="none" viewBox="0 0 96 96" id="Chroma--Streamline-Svg-Logos"><desc>Chroma Streamline Icon: https://streamlinehq.com</desc><path fill="#ffde2d" d="M63.6663 78.08c17.3049 0 31.3333 -13.4672 31.3333 -30.0799 0 -16.6127 -14.0284 -30.0799 -31.3333 -30.0799 -17.3049 0 -31.3333 13.4672 -31.3333 30.0799 0 16.6127 14.0284 30.0799 31.3333 30.0799Z" stroke-width="1"></path><path fill="#327eff" d="M32.3333 78.08c17.3049 0 31.3333 -13.4672 31.3333 -30.0799 0 -16.6127 -14.0284 -30.0799 -31.3333 -30.0799C15.0284 17.9202 1 31.3874 1 48.0001 1 64.6128 15.0284 78.08 32.3333 78.08Z" stroke-width="1"></path><path fill="#ff6446" d="M63.6665 48.0001c0 16.6128 -14.0285 30.0797 -31.3335 30.0797V48.0001h31.3335Zm-31.3335 0c0 -16.6127 14.0284 -30.0799 31.3335 -30.0799v30.0799H32.333Z" stroke-width="1"></path></svg>