<svg xmlns="http://www.w3.org/2000/svg" fill="none" viewBox="0 0 96 96" id="Hugging-Face-Icon--Streamline-Svg-Logos"><desc>Hugging Face Icon Streamline Icon: https://streamlinehq.com</desc><path fill="#ffffff" d="M94.6835 68.5168c-0.2451 -0.9252 -0.6421 -1.8029 -1.1748 -2.598 0.1141 -0.419 0.2008 -0.8444 0.2593 -1.2739 0.3779 -2.7276 -0.5674 -5.2261 -2.3497 -7.1568 -0.9654 -1.0552 -2.0001 -1.7517 -3.096 -2.1794 0.7193 -3.0777 1.0836 -6.2257 1.0854 -9.3887 0 -1.4432 -0.0817 -2.8572 -0.2186 -4.2503 -0.0717 -0.6955 -0.1579 -1.3898 -0.2588 -2.0817 -0.314 -2.0416 -0.7796 -4.0572 -1.393 -6.0294 -0.4021 -1.2958 -0.8672 -2.5715 -1.3935 -3.8221 -0.7892 -1.8522 -1.7107 -3.6451 -2.7573 -5.3631 -0.6869 -1.1438 -1.4345 -2.2501 -2.2401 -3.3141 -0.3948 -0.5372 -0.8061 -1.0616 -1.2342 -1.5728 -1.268 -1.5414 -2.6455 -2.9882 -4.1229 -4.3301 -0.4902 -0.4511 -0.9946 -0.8864 -1.5126 -1.3059 -0.5098 -0.4253 -1.0311 -0.8371 -1.5628 -1.2346 -1.0703 -0.7965 -2.1767 -1.5441 -3.315 -2.2397 -6.2896 -3.8203 -13.6655 -6.01115 -21.5525 -6.01115 -22.9537 0 -41.55771 18.60395 -41.55771 41.55765 -0.00059 3.2005 0.37021 6.39 1.10501 9.5028 -0.98588 0.4282 -1.93114 1.095 -2.80702 2.0604 -1.78189 1.9311 -2.72761 4.4195 -2.34923 7.1476 0.05705 0.4336 0.14377 0.8626 0.25879 1.2844 -0.53219 0.7955 -0.92928 1.6737 -1.17484 2.5989 -0.547714 2.0817 -0.367425 3.959 0.32863 5.6049 -0.756304 2.1502 -0.56734 4.4397 0.41808 6.4311 0.71659 1.4537 1.74218 2.5779 3.00603 3.5834 1.50302 1.1944 3.38441 2.21 5.65516 3.1835 2.7075 1.1548 6.0111 2.2397 7.5128 2.6377 3.8823 1.0055 7.604 1.6427 11.3787 1.6733 5.3767 0.0502 10.0049 -1.2141 13.3185 -4.4488 1.6281 0.1995 3.2667 0.2994 4.9066 0.299 1.7331 -0.0037 3.4643 -0.1132 5.185 -0.3268 3.3064 3.2552 7.951 4.5309 13.346 4.4793 3.7723 -0.0296 7.4945 -0.6668 11.365 -1.6737 1.513 -0.398 4.8153 -1.4829 7.5265 -2.6372 2.2698 -0.9759 4.1507 -1.9909 5.6642 -3.184 1.2543 -1.0051 2.279 -2.1297 2.996 -3.5835 0.9955 -1.9904 1.1749 -4.2799 0.4281 -6.431 0.6897 -1.6445 0.8686 -3.5259 0.3214 -5.6049l0.0054 -0.0023Zm-3.8517 5.4634c0.7626 1.4473 0.8115 3.0827 0.1383 4.6054 -1.0206 2.3086 -3.5556 4.1265 -8.4805 6.0796 -3.0612 1.2145 -5.865 1.9904 -5.8879 1.9977 -4.0494 1.0503 -7.7136 1.5834 -10.8812 1.5834 -5.2489 0 -9.1559 -1.4482 -11.6343 -4.3091 -4.1896 0.7134 -8.4667 0.7376 -12.6659 0.0716 -2.4802 2.8134 -6.3626 4.2375 -11.5704 4.2375 -3.1708 0 -6.8327 -0.5331 -10.8812 -1.5834 -0.0251 -0.0073 -2.8271 -0.7832 -5.8879 -1.9977 -4.92486 -1.9522 -7.45803 -3.7692 -8.48043 -6.0796 -0.67323 -1.5231 -0.62439 -3.1585 0.1383 -4.6054 0.07074 -0.1342 0.14605 -0.2656 0.22684 -0.3921 -0.45734 -0.6864 -0.7636 -1.4623 -0.89962 -2.2757 -0.13592 -0.8134 -0.09808 -1.6468 0.11101 -2.4446 0.30306 -1.1511 0.92928 -2.1087 1.77915 -2.7966 -0.40923 -0.6727 -0.67779 -1.4213 -0.78962 -2.2008 -0.24464 -1.6952 0.31767 -3.3881 1.5838 -4.7697 0.98543 -1.074 2.3789 -1.6651 3.92207 -1.6651h0.0411c-1.16344 -3.7285 -1.75315 -7.6132 -1.7495 -11.5202 0 -21.3014 17.2712 -38.57262 38.5727 -38.57262 21.306 0 38.5726 17.27122 38.5726 38.57262 0.0027 3.9162 -0.5911 7.8095 -1.7614 11.5476 0.1863 -0.0182 0.3688 -0.0278 0.5478 -0.0278 1.5427 0 2.9366 0.5906 3.922 1.6646 1.2653 1.3788 1.8289 3.0731 1.5838 4.7696 -0.1118 0.7796 -0.3802 1.5286 -0.7896 2.2014 0.8499 0.6874 1.4761 1.645 1.7792 2.7965 0.2086 0.7978 0.2464 1.6308 0.1104 2.4446 -0.136 0.8134 -0.4423 1.5889 -0.8991 2.2758 0.0808 0.125 0.157 0.2565 0.2268 0.3907l0.0027 0.0018Z" stroke-width="1"></path><path fill="#ff9d00" d="M90.5763 73.5832c0.4569 -0.687 0.7632 -1.4624 0.8992 -2.2758 0.136 -0.8138 0.0981 -1.6468 -0.1105 -2.4446 -0.3031 -1.1511 -0.9293 -2.1087 -1.7791 -2.7965 0.4089 -0.6728 0.6778 -1.4214 0.7896 -2.2009 0.2446 -1.6952 -0.3177 -3.3881 -1.5838 -4.7697 -0.9855 -1.074 -2.3794 -1.665 -3.9221 -1.665 -0.1794 0 -0.3615 0.0091 -0.5477 0.0278 1.1689 -3.7372 1.7618 -7.6315 1.7581 -11.5476 0 -21.3014 -17.2712 -38.57264 -38.5726 -38.57264 -21.3015 0 -38.57266 17.26664 -38.57266 38.57264 -0.0037 3.9056 0.58605 7.7912 1.74946 11.5202h-0.0411c-1.54268 0 -2.93615 0.5911 -3.92157 1.6651 -1.26522 1.3788 -1.82845 3.0726 -1.58381 4.7696 0.11169 0.7796 0.3803 1.5281 0.78962 2.2009 -0.84987 0.6879 -1.47608 1.6454 -1.77869 2.797 -0.20896 0.7978 -0.24666 1.6313 -0.11055 2.4451 0.13611 0.8133 0.44287 1.5893 0.90007 2.2757 -0.0817 0.1265 -0.15655 0.2579 -0.22684 0.3921 -0.76223 1.4473 -0.81153 3.0827 -0.1383 4.6053 1.02012 2.3082 3.55557 4.1271 8.48037 6.0797 3.0613 1.2145 5.8651 1.9904 5.888 1.9977 4.0494 1.0503 7.7136 1.5838 10.8812 1.5838 5.2078 0 9.092 -1.424 11.5704 -4.2379 4.1973 0.6659 8.4759 0.6417 12.6659 -0.0717 2.477 2.8609 6.3854 4.3096 11.6343 4.3096 3.1703 0 6.8327 -0.5335 10.8812 -1.5838 0.0246 -0.0073 2.8271 -0.7832 5.8879 -1.9977 4.9249 -1.9517 7.458 -3.7706 8.4804 -6.0797 0.6733 -1.5231 0.6244 -3.1584 -0.1383 -4.6053 -0.0698 -0.1356 -0.1465 -0.2666 -0.2273 -0.3921l-0.0008 -0.0013ZM39.639 79.5989c-0.2136 0.3738 -0.4422 0.7385 -0.686 1.0931 -0.6412 0.9389 -1.4847 1.6559 -2.4633 2.1895 -1.8718 1.0201 -4.2402 1.377 -6.6456 1.377 -3.8011 0 -7.6999 -0.8896 -9.8816 -1.4564 -0.1073 -0.0279 -13.38703 -3.7792 -11.70738 -6.9742 0.28299 -0.5368 0.749 -0.7513 1.33505 -0.7513 2.36753 0 6.67753 3.5254 8.53063 3.5254 0.4135 0 0.7056 -0.1766 0.8248 -0.6061 0.7896 -2.8321 -11.99951 -4.0225 -10.92234 -8.1244 0.19033 -0.7257 0.70563 -1.0201 1.43089 -1.0201 3.12975 -0.0005 10.15555 5.5045 11.62525 5.5045 0.1127 0 0.1935 -0.0329 0.2373 -0.1023l0.0192 -0.0314c0.6892 -1.1388 0.2939 -1.9668 -4.431 -4.861l-0.4537 -0.2761c-5.1987 -3.1471 -8.85014 -5.039 -6.7734 -7.2983 0.23871 -0.2611 0.5769 -0.3766 0.9882 -0.3766 0.4879 0 1.078 0.1634 1.728 0.4368 2.7459 1.158 6.5497 4.316 8.1427 5.6917 0.4687 0.408 0.7448 0.6572 0.7448 0.6572s2.0129 2.0932 3.2302 2.0932c0.2802 0 0.5176 -0.11 0.6787 -0.3834 0.8636 -1.4551 -8.0149 -8.1837 -8.5169 -10.9588 -0.3392 -1.8814 0.2382 -2.8339 1.3067 -2.8339 0.5076 0 1.1274 0.2158 1.8116 0.6499 2.1224 1.3474 6.2211 8.3891 7.7227 11.1277 0.503 0.9183 1.3615 1.3063 2.1352 1.3063 1.5349 0 2.7349 -1.5258 0.1406 -3.4647 -3.8993 -2.918 -2.5309 -7.6863 -0.6701 -7.9784 0.0794 -0.0123 0.1598 -0.0187 0.2397 -0.0192 1.6924 0 2.4391 2.9166 2.4391 2.9166s2.1877 5.4954 5.9472 9.2518c3.4109 3.409 3.887 6.2074 1.9001 9.6945l-0.0073 0.0014Zm12.1547 0.6435 -0.1949 0.0233 -0.3327 0.0383c-0.1748 0.0178 -0.3497 0.0352 -0.5254 0.0516l-0.1716 0.0155 -0.1561 0.0133 -0.2223 0.0178c-0.0817 0.0059 -0.1634 0.0123 -0.2451 0.0173l-0.2446 0.0165 -0.0539 0.0031 -0.1926 0.0115 -0.0817 0.0041 -0.2282 0.0114 -0.2652 0.0109 -0.241 0.0082 -0.1606 0.0046h-0.0813c-0.0502 0 -0.0999 0.0027 -0.1502 0.0032h-0.0798c-0.0502 0 -0.1 0 -0.1502 0.0027l-0.204 0.0023h-0.2857c-0.2241 0 -0.4473 -0.0023 -0.6705 -0.0064l-0.1808 -0.0041c-0.0511 0 -0.1027 -0.0027 -0.1538 -0.0041l-0.1912 -0.0059 -0.2383 -0.0091 -0.2141 -0.0092 -0.0556 -0.0023 -0.2041 -0.0109c-0.0566 -0.0032 -0.1132 -0.0059 -0.1693 -0.0096l-0.1319 -0.0078c-0.1657 -0.0105 -0.3314 -0.0223 -0.4971 -0.0351l-0.1734 -0.0137 -0.2191 -0.0187 -0.256 -0.0237c-0.1429 -0.0133 -0.2858 -0.0279 -0.4286 -0.0439h-0.0069c2.0859 -4.6555 1.0311 -9.0007 -3.184 -13.209 -2.7641 -2.7604 -4.6053 -6.8372 -4.9842 -7.7318 -0.7723 -2.6496 -2.8166 -5.5958 -6.212 -5.5958 -0.287 0.0004 -0.5732 0.0233 -0.8567 0.068 -1.4875 0.2337 -2.7874 1.0899 -3.7148 2.378 -1.0019 -1.2465 -1.9764 -2.2374 -2.8573 -2.7975 -1.3282 -0.8416 -2.6532 -1.2688 -3.9449 -1.2688 -1.6111 0 -3.0521 0.6618 -4.0562 1.8622l-0.0251 0.0306 -0.0566 -0.2378 -0.0023 -0.0101c-0.191 -0.817 -0.3514 -1.6413 -0.4811 -2.4702 0 -0.0059 0 -0.0114 -0.0027 -0.0168l-0.0283 -0.1876c-0.0153 -0.1014 -0.0302 -0.2031 -0.0448 -0.3045 -0.0118 -0.0844 -0.0237 -0.1688 -0.0346 -0.2528 -0.011 -0.084 -0.0229 -0.1685 -0.0329 -0.2529 -0.011 -0.0849 -0.021 -0.1693 -0.031 -0.2538 -0.0097 -0.0803 -0.0189 -0.1606 -0.0279 -0.241l-0.0027 -0.0205c-0.0411 -0.3706 -0.0764 -0.7417 -0.1059 -1.1132l-0.016 -0.215c-0.0046 -0.0589 -0.0087 -0.1182 -0.0123 -0.178 0 -0.0137 -0.0018 -0.0278 -0.0027 -0.0406l-0.0151 -0.2383c-0.0054 -0.0862 -0.0096 -0.1725 -0.0142 -0.2588 -0.0045 -0.0858 -0.0091 -0.1721 -0.0127 -0.2588l-0.0092 -0.2259 -0.0027 -0.0685 -0.0069 -0.209 -0.0049 -0.1771c0 -0.0707 -0.0033 -0.142 -0.0046 -0.2127l-0.0037 -0.2232c-0.0009 -0.0744 0 -0.1483 -0.0018 -0.2227 -0.0023 -0.0749 0 -0.1493 0 -0.2241 0 -19.1015 15.4866 -34.5881 34.5926 -34.5881 19.106 0 34.5926 15.4866 34.5926 34.5881v0.4468c0 0.0744 -0.0018 0.1493 -0.0037 0.2232 0 0.0621 -0.0022 0.1228 -0.0041 0.1849 0 0.0552 -0.0022 0.11 -0.0045 0.1634 0 0.0698 -0.0041 0.1392 -0.0064 0.209v0.0059c-0.0059 0.1516 -0.0123 0.3031 -0.0187 0.4546l-0.0028 0.0502 -0.0118 0.2264 -0.011 0.1794c-0.0255 0.4249 -0.0589 0.8499 -0.0995 1.2739v0.0059c-0.0073 0.0794 -0.0155 0.1593 -0.0242 0.2387 -0.0201 0.1849 -0.0406 0.3697 -0.0611 0.5546l-0.0233 0.1858 -0.0288 0.2181c-0.01 0.0799 -0.021 0.1593 -0.0324 0.2387 -0.0123 0.089 -0.0255 0.1776 -0.0383 0.2661l-0.032 0.2091 -0.0374 0.2373c-0.0128 0.079 -0.0256 0.1575 -0.0406 0.2365 -0.0155 0.0785 -0.0274 0.157 -0.0411 0.2359 -0.0274 0.157 -0.0557 0.3136 -0.0863 0.4701 -0.0607 0.3118 -0.1241 0.6226 -0.1912 0.933 -0.0169 0.0771 -0.0342 0.1547 -0.052 0.2318 -0.9736 -0.9461 -2.2625 -1.4614 -3.6848 -1.4614 -1.2903 0 -2.6167 0.4267 -3.9444 1.2688 -0.8814 0.5596 -1.8549 1.551 -2.8577 2.7975 -0.9288 -1.2885 -2.2287 -2.1443 -3.7144 -2.3785 -0.2835 -0.0442 -0.5701 -0.0671 -0.8572 -0.0675 -3.3953 0 -5.4406 2.9453 -6.212 5.5958 -0.3829 0.895 -2.2223 4.9705 -4.9887 7.7364 -4.2119 4.1982 -5.2763 8.5261 -3.2215 13.1588l-0.0027 -0.0023Zm35.7109 -9.3157 -0.0137 0.0407c-0.0096 0.026 -0.0192 0.052 -0.0297 0.0776 -0.0164 0.0388 -0.0338 0.0766 -0.052 0.1145 -0.0443 0.0904 -0.0945 0.178 -0.1498 0.262 -0.0762 0.1137 -0.1597 0.2223 -0.2505 0.3245 -0.021 0.0238 -0.0411 0.0471 -0.0648 0.0703 -0.032 0.0352 -0.0662 0.0694 -0.1 0.1036 -0.6148 0.6094 -1.5514 1.1429 -2.6103 1.6331 -0.12 0.0543 -0.2415 0.1087 -0.3647 0.163l-0.1223 0.0543c-0.0817 0.036 -0.163 0.0721 -0.2488 0.1073 -0.0835 0.0356 -0.1675 0.0707 -0.2515 0.1054l-0.2546 0.1054c-0.5957 0.2451 -1.2059 0.4784 -1.8016 0.7093l-0.2542 0.0986 -0.2519 0.0986c-0.1671 0.0653 -0.3323 0.1305 -0.4953 0.1958l-0.2423 0.0977 -0.2378 0.0976 -0.1173 0.0489c-0.0776 0.0328 -0.1543 0.0648 -0.2301 0.0977 -1.7517 0.7512 -3.0115 1.5157 -2.7467 2.4647 0.0073 0.0269 0.0155 0.0524 0.0246 0.0771 0.0237 0.0703 0.0561 0.1369 0.0963 0.199 0.0237 0.0374 0.0511 0.0726 0.0817 0.1045 0.3113 0.3232 0.8777 0.272 1.592 0.0155 0.058 -0.021 0.1173 -0.0433 0.1771 -0.0671 0.0411 -0.0155 0.0817 -0.0319 0.1228 -0.0483l0.0616 -0.0261c0.1634 -0.0693 0.3364 -0.1465 0.5135 -0.2309 0.0443 -0.0205 0.089 -0.0406 0.1337 -0.0644 0.8732 -0.4267 1.8632 -1.0023 2.8454 -1.5258 0.1506 -0.0817 0.3017 -0.1597 0.4519 -0.2373 0.2455 -0.1274 0.4934 -0.2502 0.7435 -0.3675 0.9302 -0.4372 1.8042 -0.7476 2.5076 -0.7476 0.3295 0 0.6212 0.0676 0.8636 0.2227l0.0406 0.027c0.1228 0.0867 0.2296 0.193 0.3167 0.3154 0.0201 0.0287 0.0411 0.0584 0.0589 0.089 0.0192 0.0315 0.0374 0.0639 0.0548 0.0967 0.3473 0.6591 0.0566 1.3424 -0.6235 2.012 -0.6531 0.6426 -1.6691 1.2729 -2.8244 1.8567 -0.0853 0.0434 -0.1716 0.0867 -0.2583 0.1287 -3.4374 1.6879 -7.9373 2.959 -8.0012 2.975 -1.1995 0.3108 -2.9147 0.7193 -4.8472 1.0247l-0.2862 0.0443 -0.0466 0.0068c-0.4381 0.0657 -0.8777 0.1237 -1.3181 0.1739l-0.0406 0.0041c-0.8011 0.0913 -1.6226 0.1575 -2.4456 0.1853h-0.0123c-0.2958 0.011 -0.5911 0.016 -0.8868 0.016h-0.3405c-0.451 -0.0064 -0.9015 -0.0265 -1.3511 -0.0612 -0.0105 0 -0.0214 0 -0.0324 -0.0022 -0.1606 -0.0124 -0.3217 -0.0274 -0.482 -0.0452 -0.2756 -0.0297 -0.5509 -0.0662 -0.8252 -0.1091 -0.1068 -0.0178 -0.2209 -0.0365 -0.3309 -0.0557 -0.0502 -0.0091 -0.0999 -0.0183 -0.1497 -0.0283l-0.0119 -0.0023c-0.1583 -0.0301 -0.3158 -0.0634 -0.4728 -0.0995 -0.0908 -0.0205 -0.1821 -0.0411 -0.272 -0.0653l-0.0539 -0.0141c-0.0447 -0.011 -0.0886 -0.0228 -0.1324 -0.0347l-0.0242 -0.0064 -0.141 -0.0406c-0.0511 -0.0146 -0.1018 -0.0297 -0.1529 -0.0447l-0.0183 -0.0055 -0.1328 -0.0406c-0.0502 -0.0155 -0.0999 -0.032 -0.1497 -0.048 -0.0411 -0.0136 -0.0817 -0.0278 -0.1228 -0.041l-0.0899 -0.0315c-0.0867 -0.0302 -0.1725 -0.0621 -0.2583 -0.095l-0.0813 -0.0315 -0.0671 -0.0269c-0.1291 -0.052 -0.2578 -0.1063 -0.3852 -0.1634l-0.0849 -0.0406 -0.0141 -0.0064c-0.0302 -0.0141 -0.0598 -0.0283 -0.0899 -0.0411 -0.0589 -0.0283 -0.1173 -0.0575 -0.1753 -0.0872l-0.0174 -0.0086 -0.0839 -0.0443c-0.1493 -0.0776 -0.2958 -0.1607 -0.4391 -0.2492l-0.0785 -0.0479c-0.0406 -0.0247 -0.0776 -0.0498 -0.1164 -0.0749l-0.1023 -0.068c-0.0369 -0.0246 -0.0739 -0.0497 -0.1099 -0.0758l-0.0658 -0.0465c-0.0694 -0.0498 -0.1374 -0.1004 -0.2045 -0.1529 -0.0356 -0.0274 -0.0707 -0.0557 -0.1058 -0.0817 -0.0781 -0.0626 -0.1543 -0.1269 -0.2296 -0.1931l-0.0032 -0.0027c-0.0735 -0.0635 -0.1452 -0.1292 -0.215 -0.1963l-0.0037 -0.0046c-0.0365 -0.0346 -0.0721 -0.0693 -0.1077 -0.1054 -0.0351 -0.0361 -0.0707 -0.0717 -0.1049 -0.1077 -0.0347 -0.0365 -0.0694 -0.0735 -0.1032 -0.1114 -0.0329 -0.0356 -0.0648 -0.0716 -0.0968 -0.1082l-0.0109 -0.0123c-0.1648 -0.1912 -0.3191 -0.3916 -0.4619 -0.6002l-0.0566 -0.0835c-0.0374 -0.0552 -0.0744 -0.1109 -0.1109 -0.1666l-0.1077 -0.1657c-0.053 -0.0808 -0.1046 -0.1625 -0.1548 -0.2446 -0.036 -0.0584 -0.0716 -0.1169 -0.1068 -0.1757 -0.0296 -0.0503 -0.0593 -0.1 -0.0876 -0.1493 -0.016 -0.0269 -0.0311 -0.0543 -0.0461 -0.0817 -0.0151 -0.0283 -0.0329 -0.0571 -0.0489 -0.0858l-0.0255 -0.0452c-0.0087 -0.0151 -0.0114 -0.0196 -0.016 -0.0297 -0.031 -0.0543 -0.0611 -0.1095 -0.0904 -0.1656 -0.0132 -0.0242 -0.0264 -0.0489 -0.0406 -0.0731l-0.0411 -0.0785 -0.0406 -0.078 -0.0785 -0.1584c-0.0128 -0.026 -0.0251 -0.052 -0.0374 -0.0781 -0.0269 -0.0561 -0.0525 -0.1113 -0.0781 -0.1666 -0.01 -0.0223 -0.0205 -0.0447 -0.0296 -0.067 -0.0352 -0.0763 -0.0685 -0.1534 -0.1 -0.2315 -0.0214 -0.0515 -0.0411 -0.1027 -0.0621 -0.1538 -0.0588 -0.1506 -0.1141 -0.3026 -0.1647 -0.4564 -0.0151 -0.0456 -0.0302 -0.0908 -0.0434 -0.1365 -0.0329 -0.1036 -0.0625 -0.2081 -0.089 -0.3135 -0.0324 -0.1228 -0.0612 -0.247 -0.0853 -0.3716 -0.0156 -0.0735 -0.0293 -0.1474 -0.0407 -0.2218 -0.0123 -0.0735 -0.0228 -0.147 -0.0315 -0.22 -0.0187 -0.1456 -0.0319 -0.2916 -0.0397 -0.4382 0 -0.0242 -0.0023 -0.0488 -0.0027 -0.073 -0.0023 -0.0484 -0.0037 -0.0967 -0.0041 -0.1451 -0.0256 -1.9499 0.9617 -3.8253 3.0717 -5.9336 3.7583 -3.755 5.9473 -9.2518 5.9473 -9.2518s0.0589 -0.2305 0.1816 -0.5618c0.0411 -0.11 0.084 -0.2196 0.1292 -0.3277 0.0516 -0.1224 0.1068 -0.2433 0.1661 -0.362l0.0174 -0.0347c0.0762 -0.1515 0.1588 -0.2989 0.2487 -0.4427 0.0206 -0.0333 0.0407 -0.0666 0.0644 -0.0995 0.0666 -0.0995 0.1374 -0.1958 0.2118 -0.2894 0.0575 -0.0716 0.1187 -0.141 0.183 -0.2067 0.2182 -0.2246 0.4669 -0.4081 0.7486 -0.5062l0.0356 -0.0114c0.0237 -0.0078 0.047 -0.0151 0.0712 -0.0219 0.0283 -0.0073 0.0565 -0.0142 0.0848 -0.0201l0.0128 -0.0023c0.0598 -0.0119 0.1196 -0.0201 0.1803 -0.0242h0.0055c0.0315 0 0.063 -0.0032 0.0954 -0.0032 0.0808 0.0005 0.1611 0.0069 0.241 0.0192 0.3387 0.0534 0.6613 0.2551 0.9389 0.5664l0.0374 0.0438c0.0904 0.1059 0.1725 0.2191 0.2455 0.3378 0.0548 0.0881 0.1064 0.1807 0.1552 0.2779 0.0196 0.0411 0.0384 0.0786 0.0571 0.1187 0.0091 0.0206 0.0182 0.0406 0.0269 0.0616 0.0183 0.0407 0.0351 0.0817 0.052 0.1246 0.0954 0.2447 0.1694 0.4971 0.2214 0.7545 0.0552 0.278 0.0872 0.56 0.0963 0.8435 0.0032 0.1246 0.0032 0.2506 0 0.3784 -0.0023 0.0483 -0.0046 0.0972 -0.0082 0.146 -0.0374 0.5427 -0.1556 1.0767 -0.351 1.5847 -0.0196 0.0502 -0.0411 0.1014 -0.0612 0.1525 -0.0981 0.2346 -0.2122 0.4619 -0.3409 0.681 -0.0735 0.125 -0.1529 0.2492 -0.2378 0.3724l-0.052 0.074c-0.2013 0.2811 -0.4259 0.5449 -0.6714 0.7887 -0.242 0.2423 -0.5012 0.4664 -0.7755 0.6714 -0.2752 0.2031 -0.5331 0.4286 -0.7714 0.6737 -0.686 0.7202 -0.8457 1.3551 -0.6915 1.8366 0.0183 0.0543 0.0397 0.1077 0.0644 0.1593 0.057 0.1118 0.131 0.2145 0.2195 0.304l0.0242 0.0242c0.0251 0.0242 0.0516 0.0474 0.0785 0.0698l0.0274 0.0224c0.0667 0.0511 0.1369 0.0967 0.2104 0.1364 0.021 0.0115 0.0406 0.0229 0.0648 0.0338 0.1009 0.0502 0.2063 0.0904 0.315 0.121l0.0301 0.0077 0.0406 0.011 0.0356 0.0087 0.0379 0.0082 0.0379 0.0077 0.036 0.006c0.027 0.005 0.0544 0.0091 0.0813 0.0128l0.0265 0.0036 0.047 0.005 0.0292 0.0028 0.0484 0.0036h0.0278l0.0502 0.0023h0.1584l0.0452 -0.0023 0.052 -0.0032 0.0635 -0.0059 0.0593 -0.0073c0.0132 0 0.0269 -0.0037 0.0406 -0.0059 0.2091 -0.0306 0.4126 -0.0895 0.6052 -0.1753 0.0411 -0.0174 0.0817 -0.0365 0.1192 -0.0566 0.0803 -0.0402 0.1583 -0.0854 0.2332 -0.1351 0.1045 -0.0685 0.2031 -0.1456 0.2958 -0.2296l0.0643 -0.0612c0.0101 -0.01 0.0206 -0.0196 0.0301 -0.0301 0.063 -0.063 0.1224 -0.1296 0.1776 -0.1994 0.0977 -0.1233 0.1844 -0.2543 0.2597 -0.3921 0.8932 -1.624 1.8294 -3.2242 2.8075 -4.7971l0.1342 -0.2149 0.1355 -0.2155c0.068 -0.1086 0.1361 -0.2163 0.2041 -0.3227l0.0689 -0.1072 0.1374 -0.2141c0.1844 -0.2853 0.3692 -0.5673 0.5554 -0.8467l0.1392 -0.2081c0.2794 -0.4135 0.5583 -0.8161 0.8339 -1.199l0.1379 -0.189c0.2999 -0.4144 0.6125 -0.8193 0.937 -1.2145l0.1292 -0.1543c0.021 -0.026 0.0406 -0.0511 0.0639 -0.0762l0.1264 -0.1465c0.021 -0.0242 0.0411 -0.048 0.063 -0.0712l0.1223 -0.1383 0.0617 -0.0667c0.0593 -0.0643 0.1195 -0.1278 0.1807 -0.1908 0.0411 -0.0406 0.079 -0.0817 0.1187 -0.1196 0.2314 -0.2368 0.4865 -0.4491 0.7617 -0.633l0.0635 -0.0406 0.0643 -0.0411c0.0411 -0.0256 0.0827 -0.0502 0.1251 -0.0735 1.079 -0.6121 1.9727 -0.6573 2.4866 -0.1433 0.3118 0.3117 0.4838 0.8279 0.4747 1.5459 0 0.0319 0 0.0634 -0.0027 0.0963v0.0356c0 0.0324 -0.0028 0.0657 -0.0051 0.099 0 0.0407 -0.005 0.0817 -0.0091 0.1224 -0.0041 0.041 -0.0059 0.0721 -0.01 0.1081 0 0.0105 -0.0023 0.021 -0.0037 0.0315 -0.0032 0.032 -0.0073 0.0644 -0.0114 0.0963 0 0.0101 0 0.0197 -0.0041 0.0297 -0.0046 0.0434 -0.011 0.0867 -0.0187 0.1296 -0.005 0.0397 -0.0114 0.0795 -0.0192 0.1192 -0.0032 0.0228 -0.0077 0.0451 -0.0114 0.068 -0.0119 0.0648 -0.0274 0.1291 -0.0461 0.1921 -0.0351 0.1178 -0.078 0.2333 -0.1287 0.3455 -0.0219 0.0489 -0.0452 0.0977 -0.0689 0.1456 -0.0493 0.0991 -0.105 0.2004 -0.1662 0.3054 -0.0305 0.0516 -0.062 0.105 -0.0958 0.1584l-0.0511 0.0812c-0.0521 0.0817 -0.1064 0.1643 -0.163 0.2479 -0.0566 0.0835 -0.1173 0.1688 -0.1825 0.2551 -0.0845 0.115 -0.1735 0.2323 -0.2675 0.351l-0.0712 0.0899c-0.2013 0.2506 -0.4076 0.4971 -0.6185 0.7394l-0.1675 0.1894 -0.0853 0.0959c-0.1164 0.1301 -0.2333 0.2592 -0.351 0.3875l-0.0904 0.0977c-0.0598 0.0648 -0.1223 0.1305 -0.1821 0.1958 -0.0612 0.0662 -0.1233 0.1319 -0.1853 0.1976l-0.1881 0.1981 -0.1903 0.1985c-0.0634 0.0662 -0.1273 0.1333 -0.1917 0.1995l-0.3875 0.3994c-1.8508 1.8983 -3.8011 3.7901 -4.4611 4.9705 -0.0438 0.0771 -0.0836 0.1561 -0.1196 0.2369 -0.0936 0.2145 -0.1328 0.398 -0.1064 0.5463 0.0087 0.0488 0.0261 0.0958 0.0512 0.1383 0.0374 0.0643 0.0826 0.1237 0.1346 0.1766 0.0242 0.0238 0.0493 0.0461 0.0767 0.0662 0.1355 0.0968 0.2999 0.1465 0.4665 0.1415h0.052l0.0534 -0.0036 0.0539 -0.0064 0.0442 -0.0064c0.006 -0.0005 0.0119 -0.0019 0.0178 -0.0032l0.0406 -0.0078 0.011 -0.0027 0.0447 -0.0096 0.0639 -0.0164 0.0571 -0.0169c0.0374 -0.0114 0.0748 -0.0242 0.1132 -0.0384 0.0826 -0.0292 0.1634 -0.063 0.2423 -0.1008 0.0201 -0.0096 0.0407 -0.0188 0.0603 -0.0293l0.0607 -0.0301c0.0794 -0.0401 0.1584 -0.0835 0.2378 -0.1305 0.0634 -0.0374 0.1264 -0.0758 0.1894 -0.1164l0.0612 -0.0406c0.0201 -0.0128 0.0406 -0.026 0.0607 -0.0411l0.0607 -0.0406 0.0319 -0.0224 0.0877 -0.0611c0.0817 -0.0566 0.1579 -0.1146 0.2355 -0.1735l0.0068 -0.005 0.1223 -0.0949c0.1676 -0.1324 0.3268 -0.2657 0.4706 -0.3912l0.0959 -0.0844 0.0091 -0.0083 0.0498 -0.0442c0.1177 -0.1055 0.2227 -0.2041 0.3103 -0.2858l0.0356 -0.0346 0.0863 -0.0817 0.0516 -0.0503 0.0178 -0.0182 0.005 -0.005c0.0438 -0.0438 0.0438 -0.0438 0.0876 -0.0881l0.0037 -0.0037 0.0164 -0.0146c0.005 -0.0055 0.0119 -0.0109 0.0196 -0.0178l0.0064 -0.0059 0.0174 -0.0155 0.0926 -0.0817 0.052 -0.047c0.0256 -0.022 0.0535 -0.0471 0.0817 -0.074l0.0626 -0.0548c0.0109 -0.0091 0.0219 -0.0196 0.0333 -0.0296l0.0653 -0.0571 0.0963 -0.084 0.0506 -0.0442c0.1986 -0.173 0.4405 -0.3816 0.7175 -0.6167l0.1137 -0.0958 0.188 -0.1575 0.1917 -0.1606c0.2511 -0.2082 0.5213 -0.4295 0.807 -0.6596l0.1876 -0.1506c0.1597 -0.1269 0.3241 -0.257 0.4902 -0.3875 0.0666 -0.0525 0.1346 -0.105 0.204 -0.157 0.1703 -0.1315 0.3414 -0.2625 0.513 -0.3916 0.3917 -0.2958 0.7956 -0.592 1.2041 -0.8809l0.1757 -0.1219c0.1223 -0.0849 0.2447 -0.1693 0.3674 -0.252l0.111 -0.0753c0.2195 -0.1478 0.4409 -0.2925 0.6641 -0.434l0.1109 -0.0699 0.11 -0.0684c0.11 -0.068 0.22 -0.1356 0.3286 -0.2008l0.1091 -0.0649 0.2186 -0.1273c0.0717 -0.0415 0.1429 -0.0822 0.2141 -0.1223l0.0429 -0.0242 0.1698 -0.0927c0.0703 -0.0383 0.141 -0.0753 0.2108 -0.1113l0.105 -0.0539 0.1013 -0.0516c0.2319 -0.1164 0.4679 -0.2241 0.708 -0.3227 0.0328 -0.0137 0.0652 -0.0269 0.0976 -0.041 0.0644 -0.027 0.1283 -0.0516 0.1917 -0.0735 0.0635 -0.0215 0.126 -0.0438 0.1876 -0.0658 0.0562 -0.0187 0.1105 -0.036 0.1634 -0.0525l0.0178 -0.0054c0.0283 -0.0087 0.0566 -0.0169 0.0849 -0.0242l0.0082 -0.0023c0.0576 -0.0164 0.1151 -0.0315 0.173 -0.0452h0.0046c0.0853 -0.0205 0.1684 -0.0379 0.2497 -0.0516 0.0278 -0.0045 0.0552 -0.0091 0.0817 -0.0127 0.0789 -0.0119 0.1583 -0.0201 0.2378 -0.0256 0.0502 -0.0036 0.1008 -0.005 0.151 -0.005h0.0384c0.0511 0 0.1004 0.0032 0.1492 0.0082 0.0224 0 0.0448 0.0041 0.0667 0.0073h0.0091c0.0219 0.0023 0.0443 0.0059 0.0657 0.0105 0.0215 0.0046 0.0434 0.0078 0.0644 0.0128h0.0073c0.021 0.0045 0.0406 0.0105 0.0625 0.0164 0.1744 0.047 0.3346 0.1356 0.4674 0.2579l0.0119 0.0119 0.0232 0.0228 0.0229 0.0242c0.183 0.1926 0.3345 0.413 0.4486 0.6531l0.0178 0.0406c0.0388 0.0913 0.0694 0.1858 0.0909 0.2826 0.0593 0.2697 0.0433 0.5509 -0.0466 0.8119 -0.0388 0.1137 -0.0863 0.2242 -0.1424 0.33l-0.0374 0.0676c-0.1424 0.2387 -0.3104 0.461 -0.5016 0.6627l-0.0411 0.0434c-0.0899 0.0954 -0.1835 0.188 -0.2798 0.277 -0.0306 0.0288 -0.0621 0.0575 -0.094 0.0863l-0.0484 0.0438c-0.1004 0.089 -0.2031 0.1757 -0.3072 0.2606 -0.0183 0.0146 -0.037 0.0293 -0.0548 0.0448 -0.0725 0.0584 -0.1474 0.1177 -0.225 0.1771 -0.2675 0.2044 -0.5399 0.4016 -0.8174 0.5919 -0.1634 0.1119 -0.3323 0.2246 -0.5067 0.3392 -0.325 0.2131 -0.6522 0.4217 -0.9827 0.6262 -0.0954 0.0589 -0.1912 0.1187 -0.2889 0.178 -0.8978 0.5523 -1.8932 1.1429 -2.9549 1.7851l-0.2748 0.167c-0.3008 0.1835 -0.5846 0.3588 -0.8517 0.5254l-0.1346 0.0849 -0.2547 0.1634c-0.1009 0.0639 -0.199 0.1269 -0.2944 0.1889 -0.0721 0.0461 -0.1424 0.0918 -0.2113 0.137l-0.136 0.0894c-0.0662 0.0434 -0.1319 0.0868 -0.1977 0.131l-0.0639 0.0406c-0.0675 0.0452 -0.1332 0.0895 -0.1971 0.1333l-0.1046 0.0712 -0.1227 0.0854 -0.1132 0.0789c-0.1789 0.1256 -0.3556 0.2538 -0.5309 0.3844l-0.0611 0.0465c-0.0689 0.052 -0.1356 0.1041 -0.1999 0.1547l-0.084 0.0671c-0.1415 0.1137 -0.2698 0.2228 -0.3857 0.3268l-0.0566 0.0521c-0.0324 0.0296 -0.0643 0.0593 -0.0945 0.0885 -0.0214 0.0201 -0.0411 0.0406 -0.0625 0.0607l-0.0297 0.0292c-0.0652 0.0653 -0.1287 0.1324 -0.1903 0.2013l-0.0301 0.0347c-0.0671 0.0776 -0.1255 0.152 -0.1771 0.2246l-0.0228 0.0328c-0.0594 0.0867 -0.1119 0.1785 -0.1566 0.2739l-0.0155 0.0333 -0.0096 0.0233 -0.0078 0.0201 -0.0105 0.0278c-0.0031 0.0096 -0.0095 0.0265 -0.0132 0.0411 -0.0187 0.0543 -0.0324 0.1104 -0.0415 0.1675l-0.0046 0.0306 -0.0036 0.0278 -0.0023 0.0269v0.1434c0 0.0118 0 0.0242 0.0027 0.0365 0.0005 0.0073 0.0014 0.0146 0.0023 0.0219 0 0.0118 0.0032 0.0237 0.0046 0.036l0.0086 0.0502v0.0023c0.0032 0.016 0.0064 0.032 0.0105 0.048 0.0041 0.0159 0.0083 0.0337 0.0133 0.0506 0.0146 0.0516 0.0324 0.1027 0.0529 0.1525 0 0.0036 0.0032 0.0077 0.0046 0.0114 0.0055 0.0123 0.0105 0.0251 0.0164 0.0374 0.0224 0.052 0.0475 0.1027 0.0749 0.1524l0.0287 0.0516 0.0301 0.0521 0.0315 0.052c0.0055 0.0087 0.0114 0.0164 0.0183 0.0242l0.0105 0.0109 0.0109 0.0101 0.0124 0.0096c0.0082 0.0059 0.0169 0.0109 0.026 0.0159 0.0091 0.0041 0.0192 0.0087 0.0292 0.0124 0.0109 0.0036 0.0219 0.0068 0.0329 0.0095 0.2633 0.0594 0.8046 -0.1588 1.5235 -0.5385l0.1292 -0.0685 0.2186 -0.1191 0.1073 -0.0594c0.0757 -0.041 0.1538 -0.0867 0.2328 -0.1319l0.1446 -0.0817c0.9508 -0.5472 2.0868 -1.2506 3.2607 -1.937 0.1096 -0.0644 0.22 -0.1283 0.3305 -0.1922l0.2218 -0.1415c0.1109 -0.0639 0.2214 -0.1269 0.3323 -0.189 0.472 -0.2683 0.9503 -0.5262 1.4336 -0.7731l0.2168 -0.11c0.1443 -0.0712 0.2871 -0.1406 0.4282 -0.2082 0.2734 -0.1296 0.5495 -0.2524 0.8284 -0.3688l0.1529 -0.062 0.0187 -0.0073c0.8097 -0.3209 1.5441 -0.5195 2.1384 -0.5195 0.1287 -0.0009 0.2569 0.0096 0.3838 0.0315h0.0037c0.0411 0.0073 0.078 0.0156 0.1155 0.0251h0.0068c0.0548 0.0133 0.1086 0.0302 0.1607 0.0512 0.0415 0.015 0.0817 0.0328 0.1205 0.0538 0.1702 0.0863 0.3158 0.2136 0.4244 0.3706 0.0092 0.0133 0.0178 0.027 0.026 0.0411 0.0402 0.0612 0.0749 0.1255 0.1032 0.1931 0.0169 0.0388 0.0324 0.0789 0.047 0.1223 0.0146 0.0438 0.0274 0.0858 0.0406 0.131 0.0968 0.346 0.0872 0.712 -0.0273 1.0525v-0.0014Z" stroke-width="1"></path><path fill="#ffd21e" d="M82.0862 46.1245v-0.2237c0 -19.1014 -15.482 -34.588 -34.5881 -34.588 -19.1014 0 -34.5926 15.4866 -34.5926 34.588l-0.0009 0.0749 0 0.1488c0.0027 0.0744 0.0035 0.1488 0.0028 0.2232l0.0027 0.1643 0.0009 0.0593 0.0023 0.0813c0.0009 0.0438 0.0023 0.0872 0.0023 0.131l0.0045 0.1775 0.0074 0.2086 0.0022 0.0685 0.0092 0.2159v0.01l0.0127 0.2524v0.0064c0.0046 0.0863 0.0092 0.1725 0.0146 0.2583 0.0046 0.0799 0.0096 0.1593 0.0151 0.2387l0.0014 0.0142c0.004 0.068 0.0086 0.1365 0.0137 0.2045l0.0013 0.0178c0.0046 0.0657 0.0096 0.1319 0.0151 0.1972l0.0009 0.0127 0.0091 0.1141c0.0274 0.3291 0.0593 0.6582 0.0959 0.9864l0.0023 0.0205 0.0274 0.241 0.0315 0.2538c0.0211 0.1689 0.0436 0.3373 0.0675 0.5057 0.0142 0.1018 0.029 0.2031 0.0443 0.3044l0.0023 0.0124c0.0341 0.2291 0.0708 0.4582 0.1104 0.6864 0.1135 0.6623 0.2469 1.3214 0.3998 1.9759l0.0023 0.0105 0.0146 0.0616c0.0137 0.0584 0.0274 0.1169 0.042 0.1757l0.0251 -0.0305c1.0042 -1.2004 2.4447 -1.8623 4.0563 -1.8623 1.2917 0 2.6172 0.4268 3.9449 1.2689 0.8809 0.5596 1.8549 1.5509 2.8572 2.7974 0.9275 -1.2884 2.2274 -2.1442 3.7144 -2.3779 0.2839 -0.0448 0.5706 -0.0676 0.8572 -0.068 3.3945 0 5.4406 2.9457 6.212 5.5958 0.3811 0.8955 2.2205 4.9704 4.9933 7.7318 4.2151 4.2115 5.2717 8.558 3.184 13.209h0.0069c0.1424 0.0155 0.2852 0.0301 0.4286 0.0434 0.0853 0.0082 0.1707 0.0164 0.256 0.0237l0.0301 0.0028c0.0626 0.0059 0.1255 0.0114 0.1885 0.0159l0.1735 0.0142c0.1652 0.0128 0.3309 0.0242 0.4975 0.0351l0.1314 0.0078 0.1046 0.0059 0.0652 0.0037 0.2036 0.0109 0.0557 0.0023 0.2145 0.0091 0.2378 0.0092 0.1917 0.0054 0.0319 0.0014c0.0402 0.0014 0.0813 0.0032 0.1219 0.0032l0.0434 0.0009c0.2693 0.0064 0.5381 0.0096 0.8074 0.0096h0.2857l0.2045 -0.0023c0.0502 -0.0027 0.0999 -0.0027 0.1502 -0.0027h0.0794l0.0689 -0.0014c0.0269 -0.0009 0.0543 -0.0018 0.0812 -0.0018h0.0817l0.1602 -0.0046 0.241 -0.0082 0.2657 -0.0114c0.0762 -0.0032 0.152 -0.0068 0.2282 -0.011l0.0817 -0.0045 0.1209 -0.0069 0.0717 -0.0041 0.0534 -0.0032 0.2451 -0.0164c0.0817 -0.005 0.1634 -0.0114 0.2451 -0.0178l0.2218 -0.0173 0.1566 -0.0133 0.1711 -0.0155c0.1758 -0.0164 0.351 -0.0338 0.5254 -0.052 0.1114 -0.0124 0.2218 -0.0247 0.3327 -0.0379l0.1949 -0.0233c-2.0534 -4.6327 -0.9904 -8.9597 3.2078 -13.1542 2.7669 -2.7646 4.6053 -6.8419 4.9887 -7.7365 0.7728 -2.6495 2.8153 -5.5958 6.212 -5.5958 0.2871 0.0005 0.5737 0.0229 0.8572 0.0681 1.4857 0.2336 2.786 1.0899 3.7148 2.3779 1.0028 -1.2465 1.9764 -2.2378 2.8573 -2.7974 1.3277 -0.8421 2.6541 -1.2689 3.9444 -1.2689 1.4222 0 2.7116 0.5158 3.6852 1.4615 0.0534 -0.2382 0.105 -0.4765 0.1543 -0.7157 0.0301 -0.1492 0.0598 -0.2989 0.089 -0.4491 0.0356 -0.1844 0.0694 -0.3697 0.1004 -0.555 0.0082 -0.0502 0.0169 -0.1004 0.0265 -0.1511 0.015 -0.0789 0.0283 -0.157 0.0406 -0.2364l0.005 -0.0301 0.0324 -0.2068 0.032 -0.2095 0.0004 -0.0023c0.0128 -0.0876 0.026 -0.1757 0.0379 -0.2638 0.0096 -0.0666 0.0187 -0.1333 0.0274 -0.2004l0.0055 -0.0383 0.0283 -0.2182 0.0232 -0.1857c0.0142 -0.1224 0.0279 -0.2447 0.0411 -0.3675 0.006 -0.0488 0.011 -0.0981 0.016 -0.1474l0.0046 -0.0397c0.0086 -0.0817 0.0164 -0.163 0.0237 -0.2447l0.0183 -0.1898c0.0378 -0.4209 0.0684 -0.8417 0.0922 -1.2634v-0.0028l0.0123 -0.2236 0.0023 -0.0502 0.0091 -0.2122c0.0036 -0.0799 0.0068 -0.1607 0.0096 -0.2424v-0.0059l0.0023 -0.0589c0.0022 -0.0502 0.0041 -0.1004 0.0041 -0.1502l0.0009 -0.0205c0.0018 -0.0466 0.0036 -0.095 0.0036 -0.1429l0.0014 -0.0411c0.0014 -0.0479 0.0027 -0.0954 0.0027 -0.1433l0.001 -0.0406c0.0013 -0.0612 0.0027 -0.1219 0.0027 -0.183l0.0032 -0.2255ZM38.9219 80.6806c2.739 -4.0175 2.545 -7.0336 -1.2137 -10.79 -3.7586 -3.7563 -5.9472 -9.2517 -5.9472 -9.2517s-0.8165 -3.1914 -2.6788 -2.8979c-1.8622 0.293 -3.2283 5.0618 0.6705 7.9784 3.8988 2.9188 -0.7754 4.8974 -2.2762 2.1589 -1.5012 -2.7395 -5.5958 -9.7813 -7.7227 -11.1277 -2.1242 -1.347 -3.6181 -0.592 -3.1174 2.184 0.2487 1.3779 2.5619 3.7294 4.724 5.9244 2.1927 2.2296 4.2288 4.2995 3.7938 5.0298 -0.864 1.4551 -3.907 -1.7093 -3.907 -1.7093s-9.5302 -8.6721 -11.60237 -6.4128c-1.91197 2.0827 1.03657 3.8532 5.58207 6.5817 0.3866 0.2323 0.7846 0.4715 1.1922 0.7179 5.1987 3.1476 5.6049 3.9778 4.8655 5.1668 -0.2725 0.44 -2.0128 -0.6048 -4.1535 -1.8901 -3.6491 -2.1908 -8.46211 -5.08 -9.14219 -2.4939 -0.58833 2.2379 2.95169 3.609 6.16179 4.8518 2.6746 1.0361 5.1211 1.9837 4.7605 3.2699 -0.3729 1.3332 -2.3944 0.2213 -4.6053 -0.9946 -2.4807 -1.3652 -5.19874 -2.8609 -6.08877 -1.173C6.53565 78.9936 19.8149 82.75 19.9245 82.7774c4.2904 1.1128 15.1853 3.4707 18.9965 -2.1101l0.0009 0.0133Zm17.6454 0c-2.7394 -4.0175 -2.545 -7.0336 1.2137 -10.79 3.7587 -3.7563 5.9472 -9.2517 5.9472 -9.2517s0.8161 -3.1914 2.6783 -2.8979c1.8623 0.293 3.2288 5.0618 -0.6704 7.9784 -3.8993 2.9165 0.7754 4.8974 2.2766 2.1589 1.5007 -2.7395 5.5958 -9.7813 7.7182 -11.1277 2.1224 -1.3465 3.6185 -0.592 3.1178 2.184 -0.2487 1.3779 -2.5619 3.7299 -4.724 5.929 -2.1922 2.2291 -4.2283 4.299 -3.7933 5.0298 0.8635 1.4551 3.9093 -1.7112 3.9093 -1.7112s9.5302 -8.6721 11.6023 -6.4128c1.912 2.0827 -1.037 3.8537 -5.5821 6.5817 -0.3866 0.2319 -0.7841 0.4706 -1.1917 0.7175 -5.1987 3.1471 -5.6049 3.9778 -4.8655 5.1668 0.2725 0.44 2.0128 -0.6048 4.153 -1.8896 3.6496 -2.1909 8.4622 -5.0801 9.1422 -2.4944 0.5884 2.2379 -2.9517 3.6094 -6.1617 4.8518 -2.6747 1.0361 -5.1211 1.9832 -4.7605 3.2699 0.3729 1.3332 2.3935 0.2209 4.6007 -0.9951 2.4807 -1.3651 5.1987 -2.8613 6.0888 -1.173 1.6815 3.1927 -11.5978 6.9468 -11.7074 6.9742 -4.2904 1.116 -15.1853 3.4739 -18.9919 -2.1068l0.0004 0.0082Z" stroke-width="1"></path><path fill="#32343d" d="M58.763 36.4847c0.5391 0.1908 0.9403 0.7718 1.3218 1.3241 0.5158 0.7472 0.996 1.4419 1.7326 1.0502 0.8695 -0.4619 1.582 -1.1711 2.048 -2.0384 0.466 -0.8672 0.6641 -1.8526 0.5696 -2.8325 -0.0703 -0.7326 -0.3021 -1.4405 -0.6791 -2.0727 -0.377 -0.6321 -0.8896 -1.173 -1.5003 -1.5833 -0.6112 -0.4103 -1.3058 -0.6796 -2.0334 -0.7892 -0.728 -0.1095 -1.471 -0.0561 -2.1758 0.1562 -0.9425 0.2838 -1.7796 0.8407 -2.4058 1.6002 -0.6258 0.7595 -1.0128 1.6874 -1.1119 2.6664 -0.0985 0.9795 0.0954 1.9663 0.5573 2.8354 0.3414 0.6422 1.0991 0.3395 1.8988 0.0196 0.6271 -0.2506 1.2798 -0.5117 1.7782 -0.336Zm-23.4512 0.0005c-0.539 0.1908 -0.9407 0.7718 -1.3223 1.3241 -0.5157 0.7467 -0.9959 1.4418 -1.7326 1.0502 -0.6495 -0.3455 -1.2141 -0.8312 -1.6536 -1.4213 -0.4395 -0.5902 -0.7426 -1.2702 -0.8878 -1.9919 -0.1451 -0.7211 -0.1287 -1.466 0.0484 -2.1799 0.1776 -0.7143 0.5108 -1.3802 0.9759 -1.9503 0.466 -0.5696 1.052 -1.0288 1.7166 -1.3451 0.6645 -0.3163 1.3912 -0.4806 2.1269 -0.4824 0.7358 -0.0016 1.4629 0.1599 2.1288 0.4729 0.6659 0.313 1.2543 0.7699 1.7226 1.3373 0.6262 0.7595 1.0132 1.6874 1.1123 2.6669 0.0986 0.9795 -0.0954 1.9663 -0.5578 2.8353 -0.3423 0.6422 -1.1 0.3391 -1.8996 0.0192 -0.6267 -0.2506 -1.2794 -0.5117 -1.7778 -0.3355v0.0005Zm19.8226 21.3379c3.7167 -2.9284 5.0801 -7.709 5.0801 -10.653 0 -2.3278 -1.5665 -1.5952 -4.0737 -0.3542l-0.141 0.0703c-2.3018 1.1397 -5.3676 2.6569 -8.7269 2.6569 -3.3634 0 -6.4265 -1.5176 -8.7269 -2.6573 -2.5884 -1.2821 -4.2119 -2.0864 -4.2119 0.2848 0 3.0375 1.4524 8.024 5.4406 10.9223 0.5258 -1.0681 1.2662 -2.0161 2.1754 -2.7847 0.9087 -0.7686 1.9667 -1.341 3.1073 -1.6819 0.398 -0.1187 0.8079 0.5664 1.2278 1.2675 0.4049 0.6769 0.8184 1.3688 1.2397 1.3688 0.4482 0 0.8891 -0.6819 1.3195 -1.3478 0.4496 -0.6956 0.8878 -1.3739 1.3118 -1.2383 2.1342 0.6851 3.9193 2.1708 4.9796 4.1453l-0.0014 0.0013Z" stroke-width="1"></path><path fill="#ff323d" d="M55.1117 57.8364c-1.9357 1.5254 -4.5086 2.5482 -7.8597 2.5482 -3.148 0 -5.6095 -0.9028 -7.4991 -2.2771 0.5263 -1.0676 1.2671 -2.0156 2.1758 -2.7837 0.9088 -0.7687 1.9668 -1.3415 3.1069 -1.6829 0.7819 -0.2332 1.6098 2.6364 2.467 2.6364 0.9179 0 1.802 -2.8514 2.6318 -2.5862 2.1333 0.6856 3.9179 2.1713 4.9796 4.1453h-0.0023Z" stroke-width="1"></path><path fill="#ffad03" d="M26.4159 40.6291c-0.3532 0.2378 -0.75 0.4035 -1.1671 0.4874 -0.4174 0.084 -0.8472 0.0849 -1.2648 0.0028 -0.4177 -0.0826 -0.8152 -0.2465 -1.1694 -0.4825 -0.3541 -0.2364 -0.6581 -0.5399 -0.8946 -0.8941 -0.2365 -0.3537 -0.4009 -0.7513 -0.4838 -1.1685 -0.0827 -0.4176 -0.0823 -0.8475 0.0014 -1.2652 0.0837 -0.4171 0.2489 -0.8138 0.4861 -1.1675 0.2373 -0.3534 0.5422 -0.6564 0.8969 -0.8919 0.7134 -0.4733 1.5856 -0.6449 2.425 -0.4765 0.8393 0.1684 1.5783 0.6628 2.0539 1.3743 0.4756 0.712 0.6499 1.5834 0.4843 2.4232 -0.1657 0.8403 -0.6577 1.5806 -1.3679 2.0585Zm46.2817 0c-0.3533 0.2378 -0.75 0.4035 -1.1671 0.4874 -0.4172 0.084 -0.8472 0.0849 -1.2648 0.0028 -0.4176 -0.0826 -0.8152 -0.2465 -1.1694 -0.4825 -0.3541 -0.2364 -0.6581 -0.5399 -0.8946 -0.8941 -0.2368 -0.3537 -0.4012 -0.7513 -0.4838 -1.1685 -0.0826 -0.4176 -0.0821 -0.8475 0.0014 -1.2652 0.0835 -0.4171 0.2488 -0.8138 0.4861 -1.1675 0.2373 -0.3534 0.5422 -0.6564 0.8969 -0.8919 0.7134 -0.4733 1.5856 -0.6449 2.425 -0.4765 0.8393 0.1684 1.5778 0.6628 2.0539 1.3743 0.4756 0.712 0.6499 1.5834 0.4843 2.4232 -0.1657 0.8403 -0.6577 1.5806 -1.3679 2.0585Z" stroke-width="1"></path></svg>