<svg xmlns="http://www.w3.org/2000/svg" fill="none" viewBox="0 0 96 96" id="Openai-Icon--Streamline-Svg-Logos"><desc>Openai Icon Streamline Icon: https://streamlinehq.com</desc><path fill="#ffffff" d="M88.2702 39.4662c2.1262 -6.4031 1.3902 -13.4119 -2.0198 -19.2336C81.1232 11.3077 70.818 6.71676 60.7538 8.87396c-5.6716 -6.30874 -14.2771 -9.114114 -22.5771 -7.3601C29.8766 3.26788 23.1419 9.31503 20.5076 17.379c-6.6109 1.3557 -12.31674 5.495 -15.65743 11.3586C-0.332939 37.6481 0.843491 48.8878 7.7593 56.5319c-2.13427 6.4002 -1.40493 13.4099 2.00119 19.2337C14.8942 84.6935 25.2061 89.2841 35.2757 87.1242c4.4789 5.0435 10.9135 7.9131 17.6586 7.8754 10.3159 0.0092 19.4549 -6.6503 22.6061 -16.4731 6.6099 -1.358 12.3149 -5.4966 15.6574 -11.3586 5.1205 -8.8947 3.9391 -20.0738 -2.9276 -27.7017ZM52.9343 88.8475c-4.1175 0.0065 -8.106 -1.4367 -11.2659 -4.0765l0.5558 -0.315 18.7149 -10.8028c0.9475 -0.5557 1.532 -1.5698 1.5379 -2.6682V44.5989l7.9121 4.5768c0.0792 0.0404 0.1343 0.1161 0.1483 0.2038v21.8649c-0.0204 9.7134 -7.8896 17.5827 -17.6031 17.6031ZM15.097 72.6897c-2.0649 -3.5656 -2.8063 -7.7451 -2.0938 -11.8033l0.5558 0.3335 18.7334 10.8027c0.9439 0.5539 2.1135 0.5539 3.0574 0l22.884 -13.193v9.1351c-0.0043 0.0958 -0.0521 0.1845 -0.1297 0.2408L39.1483 79.138c-8.4233 4.8526 -19.1852 1.9673 -24.0513 -6.4483Zm-4.9289 -40.765c2.0793 -3.5886 5.3612 -6.3257 9.2648 -7.7268v22.2354c-0.0143 1.0942 0.5679 2.1095 1.5194 2.6498l22.7728 13.1374 -7.9121 4.5768c-0.0869 0.0461 -0.191 0.0461 -0.2779 0L16.6164 55.8834c-8.40679 -4.8728 -11.28993 -15.6266 -6.4483 -24.0513v0.0926Zm65.0017 15.1016 -22.847 -13.2672 7.8936 -4.5582c0.0869 -0.0462 0.1911 -0.0462 0.278 0L79.413 40.1333c5.9047 3.4073 9.3111 9.9175 8.744 16.7111 -0.5671 6.7936 -5.0058 12.6489 -11.3937 15.03V49.639c-0.0332 -1.091 -0.6387 -2.0838 -1.5935 -2.6127Zm7.875 -11.8404 -0.5559 -0.3335L63.7926 23.957c-0.9496 -0.5572 -2.1263 -0.5572 -3.0759 0L37.8513 37.15v-9.135c-0.0099 -0.0946 0.0327 -0.1871 0.1112 -0.2409l18.9186 -10.9139c5.9191 -3.4099 13.2758 -3.0917 18.8783 0.8166 5.6026 3.9083 8.4416 10.7025 7.2854 17.435v0.0741ZM33.5339 51.3807l-7.9121 -4.5582c-0.08 -0.0485 -0.1343 -0.1299 -0.1483 -0.2224V24.7908c0.0091 -6.8297 3.9637 -13.0392 10.149 -15.93538 6.1852 -2.89623 13.487 -1.95758 18.7386 2.40888l-0.5559 0.315L35.0904 22.382c-0.9475 0.5558 -1.532 1.5698 -1.538 2.6683l-0.0185 26.3304Zm4.2988 -9.2647 10.1913 -5.8739 10.2098 5.8739v11.7477l-10.1727 5.8738 -10.2098 -5.8738 -0.0186 -11.7477Z" stroke-width="1"></path></svg>